{
    "asset" : {
        "generator" : "Khronos glTF Blender I/O v1.0.5",
        "version" : "2.0"
    },
    "scene" : 0,
    "scenes" : [
        {
            "name" : "Scene",
            "nodes" : [
                0,
                1,
                2,
                3,
                4,
                5,
                6,
                7,
                8,
                9
            ]
        }
    ],
    "nodes" : [
        {
            "mesh" : 0,
            "name" : "Cube.132",
            "translation" : [
                5.493315696716309,
                1.6918048858642578,
                -21.14675521850586
            ]
        },
        {
            "mesh" : 1,
            "name" : "Cube.214",
            "translation" : [
                0.6649949550628662,
                1.724279761314392,
                -30.869356155395508
            ]
        },
        {
            "mesh" : 2,
            "name" : "Cube.215",
            "translation" : [
                3.5595474243164062,
                1.7133924961090088,
                -28.85198974609375
            ]
        },
        {
            "mesh" : 3,
            "name" : "Cube.217",
            "translation" : [
                -2.0255045890808105,
                1.7133924961090088,
                -27.58847999572754
            ]
        },
        {
            "mesh" : 4,
            "name" : "Cube.218",
            "translation" : [
                5.734663963317871,
                1.724279761314392,
                -30.869356155395508
            ]
        },
        {
            "mesh" : 5,
            "name" : "Cube.219",
            "translation" : [
                11.716309547424316,
                1.724279761314392,
                -30.869356155395508
            ]
        },
        {
            "mesh" : 6,
            "name" : "Cube.221",
            "translation" : [
                14.36707592010498,
                1.724279761314392,
                -30.869356155395508
            ]
        },
        {
            "mesh" : 7,
            "name" : "Cube.222",
            "translation" : [
                -15.397943496704102,
                1.724279761314392,
                -30.869356155395508
            ]
        },
        {
            "mesh" : 8,
            "name" : "Cube.223",
            "translation" : [
                -11.479089736938477,
                1.724279761314392,
                -30.869356155395508
            ]
        },
        {
            "mesh" : 9,
            "name" : "Cube.146",
            "translation" : [
                -9.251904487609863,
                1.691805362701416,
                -22.22041130065918
            ]
        }
    ],
    "meshes" : [
        {
            "name" : "Cube.148",
            "primitives" : [
                {
                    "attributes" : {
                        "POSITION" : 0,
                        "NORMAL" : 1,
                        "TEXCOORD_0" : 2
                    },
                    "indices" : 3
                }
            ]
        },
        {
            "name" : "Cube.247",
            "primitives" : [
                {
                    "attributes" : {
                        "POSITION" : 4,
                        "NORMAL" : 5,
                        "TEXCOORD_0" : 6
                    },
                    "indices" : 7
                }
            ]
        },
        {
            "name" : "Cube.248",
            "primitives" : [
                {
                    "attributes" : {
                        "POSITION" : 8,
                        "NORMAL" : 9,
                        "TEXCOORD_0" : 10
                    },
                    "indices" : 11
                }
            ]
        },
        {
            "name" : "Cube.250",
            "primitives" : [
                {
                    "attributes" : {
                        "POSITION" : 12,
                        "NORMAL" : 13,
                        "TEXCOORD_0" : 14
                    },
                    "indices" : 15
                }
            ]
        },
        {
            "name" : "Cube.251",
            "primitives" : [
                {
                    "attributes" : {
                        "POSITION" : 16,
                        "NORMAL" : 17,
                        "TEXCOORD_0" : 18
                    },
                    "indices" : 7
                }
            ]
        },
        {
            "name" : "Cube.252",
            "primitives" : [
                {
                    "attributes" : {
                        "POSITION" : 19,
                        "NORMAL" : 20,
                        "TEXCOORD_0" : 21
                    },
                    "indices" : 7
                }
            ]
        },
        {
            "name" : "Cube.254",
            "primitives" : [
                {
                    "attributes" : {
                        "POSITION" : 22,
                        "NORMAL" : 23,
                        "TEXCOORD_0" : 24
                    },
                    "indices" : 25
                }
            ]
        },
        {
            "name" : "Cube.255",
            "primitives" : [
                {
                    "attributes" : {
                        "POSITION" : 26,
                        "NORMAL" : 27,
                        "TEXCOORD_0" : 28
                    },
                    "indices" : 7
                }
            ]
        },
        {
            "name" : "Cube.256",
            "primitives" : [
                {
                    "attributes" : {
                        "POSITION" : 29,
                        "NORMAL" : 30,
                        "TEXCOORD_0" : 31
                    },
                    "indices" : 25
                }
            ]
        },
        {
            "name" : "Cube.162",
            "primitives" : [
                {
                    "attributes" : {
                        "POSITION" : 32,
                        "NORMAL" : 33,
                        "TEXCOORD_0" : 34
                    },
                    "indices" : 35
                }
            ]
        }
    ],
    "accessors" : [
        {
            "bufferView" : 0,
            "componentType" : 5126,
            "count" : 1584,
            "max" : [
                2.197340726852417,
                7.5854573249816895,
                1.2028435468673706
            ],
            "min" : [
                -2.197340726852417,
                -7.5854573249816895,
                -1.2028435468673706
            ],
            "type" : "VEC3"
        },
        {
            "bufferView" : 1,
            "componentType" : 5126,
            "count" : 1584,
            "type" : "VEC3"
        },
        {
            "bufferView" : 2,
            "componentType" : 5126,
            "count" : 1584,
            "type" : "VEC2"
        },
        {
            "bufferView" : 3,
            "componentType" : 5123,
            "count" : 2376,
            "type" : "SCALAR"
        },
        {
            "bufferView" : 4,
            "componentType" : 5126,
            "count" : 1584,
            "max" : [
                0.9406419992446899,
                9.923012733459473,
                1.2028435468673706
            ],
            "min" : [
                -0.9905456304550171,
                -9.927446365356445,
                -1.2028435468673706
            ],
            "type" : "VEC3"
        },
        {
            "bufferView" : 5,
            "componentType" : 5126,
            "count" : 1584,
            "type" : "VEC3"
        },
        {
            "bufferView" : 6,
            "componentType" : 5126,
            "count" : 1584,
            "type" : "VEC2"
        },
        {
            "bufferView" : 7,
            "componentType" : 5123,
            "count" : 2376,
            "type" : "SCALAR"
        },
        {
            "bufferView" : 8,
            "componentType" : 5126,
            "count" : 1584,
            "max" : [
                2.9918947219848633,
                9.906240463256836,
                2.2850937843322754
            ],
            "min" : [
                -2.9918947219848633,
                -9.906240463256836,
                -2.2850937843322754
            ],
            "type" : "VEC3"
        },
        {
            "bufferView" : 9,
            "componentType" : 5126,
            "count" : 1584,
            "type" : "VEC3"
        },
        {
            "bufferView" : 10,
            "componentType" : 5126,
            "count" : 1584,
            "type" : "VEC2"
        },
        {
            "bufferView" : 11,
            "componentType" : 5123,
            "count" : 2376,
            "type" : "SCALAR"
        },
        {
            "bufferView" : 12,
            "componentType" : 5126,
            "count" : 1584,
            "max" : [
                1.705275058746338,
                10.02695369720459,
                1.8684782981872559
            ],
            "min" : [
                -1.683760166168213,
                -10.02695369720459,
                -1.8312420845031738
            ],
            "type" : "VEC3"
        },
        {
            "bufferView" : 13,
            "componentType" : 5126,
            "count" : 1584,
            "type" : "VEC3"
        },
        {
            "bufferView" : 14,
            "componentType" : 5126,
            "count" : 1584,
            "type" : "VEC2"
        },
        {
            "bufferView" : 15,
            "componentType" : 5123,
            "count" : 2376,
            "type" : "SCALAR"
        },
        {
            "bufferView" : 16,
            "componentType" : 5126,
            "count" : 1584,
            "max" : [
                0.9406419992446899,
                9.923012733459473,
                1.2028435468673706
            ],
            "min" : [
                -0.9905456304550171,
                -9.927446365356445,
                -1.2028435468673706
            ],
            "type" : "VEC3"
        },
        {
            "bufferView" : 17,
            "componentType" : 5126,
            "count" : 1584,
            "type" : "VEC3"
        },
        {
            "bufferView" : 18,
            "componentType" : 5126,
            "count" : 1584,
            "type" : "VEC2"
        },
        {
            "bufferView" : 19,
            "componentType" : 5126,
            "count" : 1584,
            "max" : [
                0.9406419992446899,
                9.923012733459473,
                1.2028435468673706
            ],
            "min" : [
                -0.9905456304550171,
                -9.927446365356445,
                -1.2028435468673706
            ],
            "type" : "VEC3"
        },
        {
            "bufferView" : 20,
            "componentType" : 5126,
            "count" : 1584,
            "type" : "VEC3"
        },
        {
            "bufferView" : 21,
            "componentType" : 5126,
            "count" : 1584,
            "type" : "VEC2"
        },
        {
            "bufferView" : 22,
            "componentType" : 5126,
            "count" : 1584,
            "max" : [
                1.7683677673339844,
                10.056304931640625,
                1.7129343748092651
            ],
            "min" : [
                -1.7683677673339844,
                -10.056304931640625,
                -1.7129343748092651
            ],
            "type" : "VEC3"
        },
        {
            "bufferView" : 23,
            "componentType" : 5126,
            "count" : 1584,
            "type" : "VEC3"
        },
        {
            "bufferView" : 24,
            "componentType" : 5126,
            "count" : 1584,
            "type" : "VEC2"
        },
        {
            "bufferView" : 25,
            "componentType" : 5123,
            "count" : 2376,
            "type" : "SCALAR"
        },
        {
            "bufferView" : 26,
            "componentType" : 5126,
            "count" : 1584,
            "max" : [
                0.9406419992446899,
                9.923012733459473,
                1.2028435468673706
            ],
            "min" : [
                -0.9905456304550171,
                -9.927446365356445,
                -1.2028435468673706
            ],
            "type" : "VEC3"
        },
        {
            "bufferView" : 27,
            "componentType" : 5126,
            "count" : 1584,
            "type" : "VEC3"
        },
        {
            "bufferView" : 28,
            "componentType" : 5126,
            "count" : 1584,
            "type" : "VEC2"
        },
        {
            "bufferView" : 29,
            "componentType" : 5126,
            "count" : 1584,
            "max" : [
                1.7683677673339844,
                10.056304931640625,
                1.7129343748092651
            ],
            "min" : [
                -1.7683677673339844,
                -10.056304931640625,
                -1.7129343748092651
            ],
            "type" : "VEC3"
        },
        {
            "bufferView" : 30,
            "componentType" : 5126,
            "count" : 1584,
            "type" : "VEC3"
        },
        {
            "bufferView" : 31,
            "componentType" : 5126,
            "count" : 1584,
            "type" : "VEC2"
        },
        {
            "bufferView" : 32,
            "componentType" : 5126,
            "count" : 1584,
            "max" : [
                2.726271629333496,
                7.531378269195557,
                1.3155654668807983
            ],
            "min" : [
                -2.728877544403076,
                -7.521106243133545,
                -1.3132038116455078
            ],
            "type" : "VEC3"
        },
        {
            "bufferView" : 33,
            "componentType" : 5126,
            "count" : 1584,
            "type" : "VEC3"
        },
        {
            "bufferView" : 34,
            "componentType" : 5126,
            "count" : 1584,
            "type" : "VEC2"
        },
        {
            "bufferView" : 35,
            "componentType" : 5123,
            "count" : 2376,
            "type" : "SCALAR"
        }
    ],
    "bufferViews" : [
        {
            "buffer" : 0,
            "byteLength" : 19008,
            "byteOffset" : 0
        },
        {
            "buffer" : 0,
            "byteLength" : 19008,
            "byteOffset" : 19008
        },
        {
            "buffer" : 0,
            "byteLength" : 12672,
            "byteOffset" : 38016
        },
        {
            "buffer" : 0,
            "byteLength" : 4752,
            "byteOffset" : 50688
        },
        {
            "buffer" : 0,
            "byteLength" : 19008,
            "byteOffset" : 55440
        },
        {
            "buffer" : 0,
            "byteLength" : 19008,
            "byteOffset" : 74448
        },
        {
            "buffer" : 0,
            "byteLength" : 12672,
            "byteOffset" : 93456
        },
        {
            "buffer" : 0,
            "byteLength" : 4752,
            "byteOffset" : 106128
        },
        {
            "buffer" : 0,
            "byteLength" : 19008,
            "byteOffset" : 110880
        },
        {
            "buffer" : 0,
            "byteLength" : 19008,
            "byteOffset" : 129888
        },
        {
            "buffer" : 0,
            "byteLength" : 12672,
            "byteOffset" : 148896
        },
        {
            "buffer" : 0,
            "byteLength" : 4752,
            "byteOffset" : 161568
        },
        {
            "buffer" : 0,
            "byteLength" : 19008,
            "byteOffset" : 166320
        },
        {
            "buffer" : 0,
            "byteLength" : 19008,
            "byteOffset" : 185328
        },
        {
            "buffer" : 0,
            "byteLength" : 12672,
            "byteOffset" : 204336
        },
        {
            "buffer" : 0,
            "byteLength" : 4752,
            "byteOffset" : 217008
        },
        {
            "buffer" : 0,
            "byteLength" : 19008,
            "byteOffset" : 221760
        },
        {
            "buffer" : 0,
            "byteLength" : 19008,
            "byteOffset" : 240768
        },
        {
            "buffer" : 0,
            "byteLength" : 12672,
            "byteOffset" : 259776
        },
        {
            "buffer" : 0,
            "byteLength" : 19008,
            "byteOffset" : 272448
        },
        {
            "buffer" : 0,
            "byteLength" : 19008,
            "byteOffset" : 291456
        },
        {
            "buffer" : 0,
            "byteLength" : 12672,
            "byteOffset" : 310464
        },
        {
            "buffer" : 0,
            "byteLength" : 19008,
            "byteOffset" : 323136
        },
        {
            "buffer" : 0,
            "byteLength" : 19008,
            "byteOffset" : 342144
        },
        {
            "buffer" : 0,
            "byteLength" : 12672,
            "byteOffset" : 361152
        },
        {
            "buffer" : 0,
            "byteLength" : 4752,
            "byteOffset" : 373824
        },
        {
            "buffer" : 0,
            "byteLength" : 19008,
            "byteOffset" : 378576
        },
        {
            "buffer" : 0,
            "byteLength" : 19008,
            "byteOffset" : 397584
        },
        {
            "buffer" : 0,
            "byteLength" : 12672,
            "byteOffset" : 416592
        },
        {
            "buffer" : 0,
            "byteLength" : 19008,
            "byteOffset" : 429264
        },
        {
            "buffer" : 0,
            "byteLength" : 19008,
            "byteOffset" : 448272
        },
        {
            "buffer" : 0,
            "byteLength" : 12672,
            "byteOffset" : 467280
        },
        {
            "buffer" : 0,
            "byteLength" : 19008,
            "byteOffset" : 479952
        },
        {
            "buffer" : 0,
            "byteLength" : 19008,
            "byteOffset" : 498960
        },
        {
            "buffer" : 0,
            "byteLength" : 12672,
            "byteOffset" : 517968
        },
        {
            "buffer" : 0,
            "byteLength" : 4752,
            "byteOffset" : 530640
        }
    ],
    "buffers" : [
        {
            "byteLength" : 535392,
            "uri" : "data:application/octet-stream;base64,"
        }
    ]
}
