{
    "asset" : {
        "generator" : "Khronos glTF Blender I/O v1.0.5",
        "version" : "2.0"
    },
    "scene" : 0,
    "scenes" : [
        {
            "name" : "Scene",
            "nodes" : [
                0,
                1
            ]
        }
    ],
    "nodes" : [
        {
            "mesh" : 0,
            "name" : "pillar",
            "translation" : [
                -0.08510500192642212,
                4.568455219268799,
                -4.082165241241455
            ]
        },
        {
            "mesh" : 1,
            "name" : "arm",
            "translation" : [
                -1.9037938117980957,
                2.091780185699463,
                -4.082165241241455
            ]
        }
    ],
    "materials" : [
        {
            "doubleSided" : true,
            "name" : "default",
            "pbrMetallicRoughness" : {
                "baseColorFactor" : [
                    0.800000011920929,
                    0.800000011920929,
                    0.800000011920929,
                    1
                ],
                "metallicFactor" : 0,
                "roughnessFactor" : 0.5
            }
        },
        {
            "doubleSided" : true,
            "emissiveFactor" : [
                0.11697050929069519,
                0.5906190276145935,
                0.7454044222831726
            ],
            "name" : "Material.002",
            "pbrMetallicRoughness" : {}
        }
    ],
    "meshes" : [
        {
            "name" : "Cube.302",
            "primitives" : [
                {
                    "attributes" : {
                        "POSITION" : 0,
                        "NORMAL" : 1,
                        "TEXCOORD_0" : 2
                    },
                    "indices" : 3,
                    "material" : 0
                },
                {
                    "attributes" : {
                        "POSITION" : 4,
                        "NORMAL" : 5,
                        "TEXCOORD_0" : 6
                    },
                    "indices" : 7,
                    "material" : 1
                }
            ]
        },
        {
            "name" : "Cube.320",
            "primitives" : [
                {
                    "attributes" : {
                        "POSITION" : 8,
                        "NORMAL" : 9,
                        "TEXCOORD_0" : 10
                    },
                    "indices" : 11,
                    "material" : 0
                },
                {
                    "attributes" : {
                        "POSITION" : 12,
                        "NORMAL" : 13,
                        "TEXCOORD_0" : 14
                    },
                    "indices" : 15,
                    "material" : 1
                }
            ]
        }
    ],
    "accessors" : [
        {
            "bufferView" : 0,
            "componentType" : 5126,
            "count" : 2876,
            "max" : [
                16.977144241333008,
                1,
                1
            ],
            "min" : [
                -16.977144241333008,
                -1.0665497779846191,
                -1
            ],
            "type" : "VEC3"
        },
        {
            "bufferView" : 1,
            "componentType" : 5126,
            "count" : 2876,
            "type" : "VEC3"
        },
        {
            "bufferView" : 2,
            "componentType" : 5126,
            "count" : 2876,
            "type" : "VEC2"
        },
        {
            "bufferView" : 3,
            "componentType" : 5123,
            "count" : 4314,
            "type" : "SCALAR"
        },
        {
            "bufferView" : 4,
            "componentType" : 5126,
            "count" : 168,
            "max" : [
                2.2173709869384766,
                -1.0201890468597412,
                0.8027307987213135
            ],
            "min" : [
                -3.163881540298462,
                -1.0201892852783203,
                0.2153313159942627
            ],
            "type" : "VEC3"
        },
        {
            "bufferView" : 5,
            "componentType" : 5126,
            "count" : 168,
            "type" : "VEC3"
        },
        {
            "bufferView" : 6,
            "componentType" : 5126,
            "count" : 168,
            "type" : "VEC2"
        },
        {
            "bufferView" : 7,
            "componentType" : 5123,
            "count" : 252,
            "type" : "SCALAR"
        },
        {
            "bufferView" : 8,
            "componentType" : 5126,
            "count" : 478,
            "max" : [
                0.2929837703704834,
                1.7179549932479858,
                0.04799709841609001
            ],
            "min" : [
                -0.7111835479736328,
                -1.1024961471557617,
                -0.16131170094013214
            ],
            "type" : "VEC3"
        },
        {
            "bufferView" : 9,
            "componentType" : 5126,
            "count" : 478,
            "type" : "VEC3"
        },
        {
            "bufferView" : 10,
            "componentType" : 5126,
            "count" : 478,
            "type" : "VEC2"
        },
        {
            "bufferView" : 11,
            "componentType" : 5123,
            "count" : 777,
            "type" : "SCALAR"
        },
        {
            "bufferView" : 12,
            "componentType" : 5126,
            "count" : 118,
            "max" : [
                0.2778198719024658,
                1.626890778541565,
                0.027824923396110535
            ],
            "min" : [
                -0.6201193332672119,
                -1.0856229066848755,
                -0.09979365020990372
            ],
            "type" : "VEC3"
        },
        {
            "bufferView" : 13,
            "componentType" : 5126,
            "count" : 118,
            "type" : "VEC3"
        },
        {
            "bufferView" : 14,
            "componentType" : 5126,
            "count" : 118,
            "type" : "VEC2"
        },
        {
            "bufferView" : 15,
            "componentType" : 5123,
            "count" : 216,
            "type" : "SCALAR"
        }
    ],
    "bufferViews" : [
        {
            "buffer" : 0,
            "byteLength" : 34512,
            "byteOffset" : 0
        },
        {
            "buffer" : 0,
            "byteLength" : 34512,
            "byteOffset" : 34512
        },
        {
            "buffer" : 0,
            "byteLength" : 23008,
            "byteOffset" : 69024
        },
        {
            "buffer" : 0,
            "byteLength" : 8628,
            "byteOffset" : 92032
        },
        {
            "buffer" : 0,
            "byteLength" : 2016,
            "byteOffset" : 100660
        },
        {
            "buffer" : 0,
            "byteLength" : 2016,
            "byteOffset" : 102676
        },
        {
            "buffer" : 0,
            "byteLength" : 1344,
            "byteOffset" : 104692
        },
        {
            "buffer" : 0,
            "byteLength" : 504,
            "byteOffset" : 106036
        },
        {
            "buffer" : 0,
            "byteLength" : 5736,
            "byteOffset" : 106540
        },
        {
            "buffer" : 0,
            "byteLength" : 5736,
            "byteOffset" : 112276
        },
        {
            "buffer" : 0,
            "byteLength" : 3824,
            "byteOffset" : 118012
        },
        {
            "buffer" : 0,
            "byteLength" : 1554,
            "byteOffset" : 121836
        },
        {
            "buffer" : 0,
            "byteLength" : 1416,
            "byteOffset" : 123392
        },
        {
            "buffer" : 0,
            "byteLength" : 1416,
            "byteOffset" : 124808
        },
        {
            "buffer" : 0,
            "byteLength" : 944,
            "byteOffset" : 126224
        },
        {
            "buffer" : 0,
            "byteLength" : 432,
            "byteOffset" : 127168
        }
    ],
    "buffers" : [
        {
            "byteLength" : 127600,
            "uri" : "data:application/octet-stream;base64,"
        }
    ]
}
